<svg viewBox="0 0 31.369565 31.369559" xmlns="http://www.w3.org/2000/svg">
    <path
        fill="hsl(24, 100%, 49%)"
        d="
            m 17.108831,30.7797
            c -0.786479,0.78648 -2.061619,0.78648 -2.848098,0
            L 0.5898597,17.108827
            c -0.7864796,-0.786479 -0.7864796,-2.061618 0,-2.848098
            L 9.9885845,4.8620045
            L 13.561251,8.4346706
            c -0.318281,0.8582859 -0.13259,1.8610784 0.557077,2.5507454
            c 0.209375,0.209375 0.447613,0.372303 0.701902,0.488779
            v 8.705976
            c -0.254289,0.116476 -0.492527,0.279404 -0.701902,0.48878
            c -0.943777,0.943777 -0.943777,2.47394 0,3.417718
            c 0.943777,0.943777 2.473941,0.943777 3.417718,0
            c 0.943777,-0.943778 0.943777,-2.473941 0,-3.417718
            c -0.209375,-0.209376 -0.447613,-0.372304 -0.701902,-0.48878
            v -8.472608
            l 3.277736,3.277736
            c -0.31828,0.858286 -0.13259,1.861079 0.557077,2.550746
            c 0.943777,0.943777 2.473941,0.943777 3.417718,0
            c 0.943778,-0.943777 0.943778,-2.473941 0,-3.417718
            C 23.397011,13.428663 22.394216,13.24297 21.53593,13.56125
            L 18.093126,10.118446
            C 18.411406,9.2601606 18.225716,8.2573679 17.536049,7.5677009
            C 16.846385,6.8780367 15.843589,6.6923435 14.985303,7.0106242
            L 11.412637,3.4379581
            L 14.260736,0.5898597
            c 0.786479,-0.7864796 2.061618,-0.7864796 2.848098,0
            L 30.779707,14.260732
            c 0.786479,0.786479 0.786479,2.061619 0,2.848098
            z
        "
    />
</svg>
